<svg xmlns="http://www.w3.org/2000/svg" viewBox="0 0 148.99 148.99"><defs><style>.cls-1{fill:#fae100;}.cls-2{fill:#45515c;}</style></defs><g id="Layer_2" data-name="Layer 2"><g id="Object"><circle class="cls-1" cx="74.49" cy="74.49" r="74.49"/><path class="cls-2" d="M115.66,115.56h-78a1.47,1.47,0,0,1-1.46-1.48V35.26a1.48,1.48,0,0,1,1.46-1.48h0a1.48,1.48,0,0,1,1.47,1.48V112.6h76.54a1.47,1.47,0,0,1,1.46,1.48h0A1.47,1.47,0,0,1,115.66,115.56Z"/><path class="cls-2" d="M37.34,113.67h0a1.41,1.41,0,0,1,0-2l38-37.55a1.42,1.42,0,0,1,2.06.08l11.22,13L112,63.4a1.41,1.41,0,0,1,2,0h0a1.41,1.41,0,0,1,0,2L89.58,90.22a1.41,1.41,0,0,1-2.07-.06l-11.24-13L39.34,113.69A1.42,1.42,0,0,1,37.34,113.67Z"/></g></g></svg>