<svg xmlns="http://www.w3.org/2000/svg" viewBox="0 0 148.99 148.99"><defs><style>.cls-1{fill:#fae100;}.cls-2{fill:#45515c;}</style></defs><g id="Layer_2" data-name="Layer 2"><g id="Object"><circle class="cls-1" cx="74.49" cy="74.49" r="74.49"/><path class="cls-2" d="M48,113.55H101a1.34,1.34,0,0,0,1.34-1.33V93.93A27.87,27.87,0,0,0,82.12,67.2a21.68,21.68,0,1,0-15.85.18,28,28,0,0,0-13.94,9.78,27.54,27.54,0,0,0-5.64,16.77v18.29A1.34,1.34,0,0,0,48,113.55Zm1.34-2.66v-17a25.14,25.14,0,1,1,50.27,0v17ZM74,66.13a19,19,0,1,1,19-19A19,19,0,0,1,74,66.13Z"/></g></g></svg>