<?xml version="1.0" encoding="utf-8"?>
<!-- Generator: Adobe Illustrator 24.1.3, SVG Export Plug-In . SVG Version: 6.00 Build 0)  -->
<svg version="1.1" id="Layer_1" xmlns="http://www.w3.org/2000/svg" xmlns:xlink="http://www.w3.org/1999/xlink" x="0px" y="0px"
	 viewBox="0 0 149 149" style="enable-background:new 0 0 149 149;" xml:space="preserve">
<style type="text/css">
	.st0{fill:#3C64FF;}
	.st1{fill:#FFFFFF;}
</style>
<g id="Layer_2_1_">
	<g id="Object">
		<circle class="st0" cx="74.5" cy="74.5" r="74.5"/>
		<path class="st1" d="M48,113.6h53c0.7,0,1.3-0.6,1.3-1.3V93.9c0-12.4-8.3-23.3-20.2-26.7C93.2,62.7,98.6,50.1,94.1,39
			S76.9,22.5,65.8,27S49.4,44.2,53.9,55.3c2.3,5.6,6.8,10,12.4,12.1c-5.5,1.7-10.4,5.2-13.9,9.8c-3.7,4.8-5.7,10.7-5.6,16.8v18.3
			C46.7,112.9,47.3,113.5,48,113.6z M49.3,110.9v-17C49.1,80,60.1,68.5,74,68.3C87.9,68,99.3,79,99.6,92.9c0,0.3,0,0.7,0,1v17H49.3z
			 M74,66.1c-10.5,0-19-8.5-19-19s8.5-19,19-19s19,8.5,19,19l0,0C93,57.6,84.5,66.1,74,66.1z"/>
	</g>
</g>
</svg>
