<svg xmlns="http://www.w3.org/2000/svg" viewBox="0 0 148.99 148.99"><defs><style>.cls-1{fill:#fae100;}.cls-2{fill:#45515c;}</style></defs><g id="Layer_2" data-name="Layer 2"><g id="Object"><circle class="cls-1" cx="74.49" cy="74.49" r="74.49"/><path class="cls-2" d="M106.1,58.78h-9v-9a22.9,22.9,0,0,0-45.8,0v9H42.89a1.71,1.71,0,0,0-1.71,1.73V112.1a1.72,1.72,0,0,0,1.71,1.74H106.1a1.73,1.73,0,0,0,1.71-1.74V60.51A1.72,1.72,0,0,0,106.1,58.78Zm-1.71,3.46v48.13H44.59V62.24ZM93.72,58.78h-39v-9a19.48,19.48,0,0,1,39,0Z"/><path class="cls-2" d="M74,93.72A1.74,1.74,0,0,0,75.71,92V76.29a1.74,1.74,0,1,0-3.47,0V92A1.74,1.74,0,0,0,74,93.72Z"/></g></g></svg>