<svg xmlns="http://www.w3.org/2000/svg" viewBox="0 0 148.99 148.99"><defs><style>.cls-1{fill:#fae100;}.cls-2{fill:#45515c;}</style></defs><g id="Layer_2" data-name="Layer 2"><g id="Object"><circle class="cls-1" cx="74.49" cy="74.49" r="74.49"/><path class="cls-2" d="M74.49,85.22A16.93,16.93,0,0,0,91.4,68.31V43.9a16.91,16.91,0,1,0-33.81,0V68.31A16.93,16.93,0,0,0,74.49,85.22ZM87.79,48.3H61.2V43.9a13.3,13.3,0,1,1,26.59,0ZM61.2,51.91H87.79v16.4a13.3,13.3,0,1,1-26.59,0Z"/><path class="cls-2" d="M102.34,69a1.81,1.81,0,0,0-3.61,0,24.24,24.24,0,1,1-48.47,0,1.81,1.81,0,0,0-3.61,0,27.87,27.87,0,0,0,26,27.78v21.58H56.77a1.81,1.81,0,1,0,0,3.61H92.22a1.81,1.81,0,0,0,0-3.61H76.3V96.8A27.87,27.87,0,0,0,102.34,69Z"/></g></g></svg>