<svg xmlns="http://www.w3.org/2000/svg" viewBox="0 0 145.29 146.7"><defs><style>.cls-1{fill:#666;stroke:#666;stroke-miterlimit:10;stroke-width:8px;}</style></defs><g id="Layer_2" data-name="Layer 2"><g id="Object"><path class="cls-1" d="M140,74.64H72.64a1.26,1.26,0,0,1-1.26-1.27V5.28A1.27,1.27,0,0,1,72.64,4h0a1.27,1.27,0,0,1,1.27,1.28V72.09H140a1.27,1.27,0,0,1,1.26,1.28h0A1.26,1.26,0,0,1,140,74.64Z"/><path class="cls-1" d="M5.26,72.06H72.65a1.26,1.26,0,0,1,1.26,1.27v68.1a1.26,1.26,0,0,1-1.26,1.27h0a1.26,1.26,0,0,1-1.26-1.27V74.61H5.26A1.27,1.27,0,0,1,4,73.33H4A1.27,1.27,0,0,1,5.26,72.06Z"/></g></g></svg>