<svg xmlns="http://www.w3.org/2000/svg" viewBox="0 0 148.99 148.99"><defs><style>.cls-1{fill:#fae100;}.cls-2{fill:#45515c;}</style></defs><g id="Layer_2" data-name="Layer 2"><g id="Object"><circle class="cls-1" cx="74.49" cy="74.49" r="74.49"/><path class="cls-2" d="M98.87,39.21c-8.83-2.06-18.34,1.86-24.38,10-6-8.11-15.55-12-24.37-10C40.39,41.48,34,49.92,33.79,60.72,33.26,91.17,73.63,116.13,74,116.25a1.41,1.41,0,0,0,.45.07,1.37,1.37,0,0,0,.45-.07c.41-.12,40.78-25.11,40.25-55.53C115,49.92,108.6,41.48,98.87,39.21Zm13.2,21.57c.47,26.44-32.84,49.06-37.58,52.14-4.73-3.08-38-25.69-37.58-52.14.16-9.33,5.63-16.6,13.92-18.53a17.14,17.14,0,0,1,4-.46c7.08,0,14.11,4.21,18.35,11a1.6,1.6,0,0,0,2.65,0C81,44.56,89.93,40.33,98.16,42.25S111.91,51.45,112.07,60.78Z"/></g></g></svg>